<svg xmlns="http://www.w3.org/2000/svg" width="106.045" height="51.083" viewBox="0 0 106.045 51.083">
  <g id="Grupo_2381" data-name="Grupo 2381" transform="translate(-903.055 -2222.63)">
    <path id="md-arrow-dropdown" d="M128,192l15.044,15.044L158.088,192Z" transform="translate(851.012 2056.067)" fill="#676c8d"/>
    <g id="calendar-svgrepo-com" transform="translate(903.055 2222.63)">
      <g id="Grupo_2162" data-name="Grupo 2162" transform="translate(0 0)">
        <g id="Grupo_2161" data-name="Grupo 2161" transform="translate(0 0)">
          <path id="Caminho_170" data-name="Caminho 170" d="M48.993,5.862H41.031V2.1a2.171,2.171,0,0,0-2.1-2.1,2.1,2.1,0,0,0-2.1,2.1V5.862H14.273V2.1a2.171,2.171,0,0,0-2.1-2.1,2.1,2.1,0,0,0-2.1,2.1V5.862H2.1A2.1,2.1,0,0,0,0,7.962V48.983a2.1,2.1,0,0,0,2.1,2.1H36.486a1.861,1.861,0,0,0,1.442-.554l12.5-11.608a2.18,2.18,0,0,0,.658-1.546V7.962A2.084,2.084,0,0,0,48.993,5.862ZM4.2,10.062H46.883V35.274h-10.5a2.1,2.1,0,0,0-2.1,2.1v9.508H4.2ZM43.644,39.475l-5.057,4.66v-4.66Z" transform="translate(0 0)" fill="#676c8d"/>
        </g>
        <path id="Caminho_171" data-name="Caminho 171" d="M192.45,173.265a5.768,5.768,0,0,0,1.452-3.845,5.82,5.82,0,1,0-10.187,3.845,6.583,6.583,0,1,0,8.735,0Zm-4.368-6.008a2.163,2.163,0,1,1-2.163,2.163A2.167,2.167,0,0,1,188.083,167.257Zm0,13.865a2.926,2.926,0,1,1,2.926-2.926A2.934,2.934,0,0,1,188.083,181.122Z" transform="translate(-162.536 -146.506)" fill="#676c8d"/>
      </g>
    </g>
  </g>
</svg>
