<svg id="check-svgrepo-com-4" xmlns="http://www.w3.org/2000/svg" width="84.033" height="84.033" viewBox="0 0 84.033 84.033">
  <path id="Caminho_254" data-name="Caminho 254" d="M42.017,0A42.017,42.017,0,1,0,84.033,42.017,42.064,42.064,0,0,0,42.017,0Zm0,76.394A34.377,34.377,0,1,1,76.394,42.017,34.416,34.416,0,0,1,42.017,76.394Z" fill="#676c8d"/>
  <path id="Caminho_255" data-name="Caminho 255" d="M115.553,103.39,93.945,125l-9.9-9.9a3.82,3.82,0,1,0-5.4,5.4l12.6,12.6a3.82,3.82,0,0,0,2.7,1.119h0a3.821,3.821,0,0,0,2.7-1.119l24.309-24.308a3.82,3.82,0,0,0-5.4-5.4Z" transform="translate(-57.781 -76.228)" fill="#676c8d"/>
</svg>
